<?xml version="1.0" encoding="UTF-8" standalone="no"?>
<!-- Created with Inkscape (http://www.inkscape.org/) -->

<svg
   width="300mm"
   height="300mm"
   viewBox="0 0 300.00001 300"
   version="1.1"
   id="svg1"
   xml:space="preserve"
   xmlns:xlink="http://www.w3.org/1999/xlink"
   xmlns="http://www.w3.org/2000/svg"
   xmlns:svg="http://www.w3.org/2000/svg"><defs
     id="defs1"><linearGradient
       id="linearGradient45"><stop
         style="stop-color:#0059fb;stop-opacity:1;"
         offset="0"
         id="stop45" /><stop
         style="stop-color:#058cfe;stop-opacity:1;"
         offset="1"
         id="stop46" /></linearGradient><linearGradient
       id="linearGradient44"><stop
         style="stop-color:#1cc5ff;stop-opacity:1;"
         offset="0"
         id="stop41" /><stop
         style="stop-color:#10c8ff;stop-opacity:1;"
         offset="0.35964867"
         id="stop42" /><stop
         style="stop-color:#09a0ff;stop-opacity:1;"
         offset="0.75583452"
         id="stop43" /><stop
         style="stop-color:#0b67ff;stop-opacity:1;"
         offset="1"
         id="stop44" /></linearGradient><linearGradient
       id="linearGradient34"><stop
         style="stop-color:#1cc5ff;stop-opacity:1;"
         offset="0"
         id="stop34" /><stop
         style="stop-color:#10b2fc;stop-opacity:1;"
         offset="0.238331"
         id="stop36" /><stop
         style="stop-color:#26d5ff;stop-opacity:1;"
         offset="0.58083701"
         id="stop39" /><stop
         style="stop-color:#005bf8;stop-opacity:1;"
         offset="1"
         id="stop37" /></linearGradient><linearGradient
       xlink:href="#linearGradient45"
       id="linearGradient54"
       gradientUnits="userSpaceOnUse"
       gradientTransform="translate(-0.52915542,24.870843)"
       x1="18.726347"
       y1="152.80707"
       x2="92.882713"
       y2="35.954601" /><linearGradient
       xlink:href="#linearGradient34"
       id="linearGradient55"
       gradientUnits="userSpaceOnUse"
       x1="188.85638"
       y1="-16.792625"
       x2="-27.060701"
       y2="40.013306" /><linearGradient
       xlink:href="#linearGradient44"
       id="linearGradient56"
       gradientUnits="userSpaceOnUse"
       gradientTransform="translate(-0.52916667,-0.52916667)"
       x1="216.64629"
       y1="100.37328"
       x2="11.066297"
       y2="2.2471817" /><linearGradient
       xlink:href="#linearGradient45"
       id="linearGradient63"
       gradientUnits="userSpaceOnUse"
       gradientTransform="translate(-0.52915542,24.870843)"
       x1="18.726347"
       y1="152.80707"
       x2="92.882713"
       y2="35.954601" /><linearGradient
       xlink:href="#linearGradient34"
       id="linearGradient64"
       gradientUnits="userSpaceOnUse"
       x1="188.85638"
       y1="-16.792625"
       x2="-27.060701"
       y2="40.013306" /><linearGradient
       xlink:href="#linearGradient44"
       id="linearGradient65"
       gradientUnits="userSpaceOnUse"
       gradientTransform="translate(-0.52916667,-0.52916667)"
       x1="216.64629"
       y1="100.37328"
       x2="11.066297"
       y2="2.2471817" /></defs><g
     id="layer2"
     style="display:none"
     transform="translate(-14.775392,1.8734534)"><circle
       style="display:inline;fill:#000000;stroke-width:0.264583"
       id="path24"
       cx="94.380836"
       cy="77.15258"
       r="123.59395" /><circle
       style="display:inline;fill:#000000;stroke-width:0.264583"
       id="path25"
       cx="100.37327"
       cy="97.377052"
       r="118.35056" /><circle
       style="display:inline;fill:#000000;stroke-width:0.197341"
       id="path26"
       cx="86.890305"
       cy="82.395966"
       r="101.12232" /><circle
       style="display:inline;fill:#000000;stroke-width:0.264583"
       id="path27"
       cx="136.32788"
       cy="-80.897858"
       r="95.129883"
       transform="scale(1,-1)" /><ellipse
       style="display:inline;fill:#000000;stroke-width:0.354961"
       id="path28"
       cx="106.77163"
       cy="142.20177"
       rx="109.08244"
       ry="109.99243" /><circle
       style="display:inline;fill:#000000;stroke-width:0.285861"
       id="path29"
       cx="97.751587"
       cy="95.50441"
       r="115.72887" /></g><g
     id="layer3"
     transform="matrix(0.75164576,0,0,0.75164576,-559.48755,9.7447724)"><g
       id="g34-6-9-5"
       transform="rotate(180,519.20154,169.85906)"><g
         id="g33-2-3-5"><path
           d="M 86.360959,6.1444605 A 101.12232,101.12232 0 0 0 -14.761034,107.26702 101.12232,101.12232 0 0 0 86.360959,208.38911 101.12232,101.12232 0 0 0 125.66915,200.10176 95.129883,95.129883 0 0 1 40.668657,105.76891 95.129883,95.129883 0 0 1 120.15217,11.993713 101.12232,101.12232 0 0 0 86.360959,6.1444605 Z"
           style="display:inline;fill:url(#linearGradient63);stroke-width:0.197341"
           id="path51-1-4" /><path
           d="M 94.380614,-46.441483 A 123.59395,123.59395 0 0 0 -29.212876,77.152523 123.59395,123.59395 0 0 0 -0.03326176,156.74198 115.72887,115.72887 0 0 1 -17.977386,95.504374 115.72887,115.72887 0 0 1 97.751467,-20.224479 115.72887,115.72887 0 0 1 213.48032,95.504374 115.72887,115.72887 0 0 1 211.50886,115.88659 123.59395,123.59395 0 0 0 217.97462,77.152523 123.59395,123.59395 0 0 0 94.380614,-46.441483 Z"
           style="display:inline;fill:url(#linearGradient64);stroke-width:0.264583"
           id="path49-9-7" /><path
           d="M 99.843843,-21.502437 A 118.35056,118.35056 0 0 0 -18.506553,96.847961 118.35056,118.35056 0 0 0 -1.6155941,157.35951 109.08244,109.99243 0 0 1 -2.8398088,141.67261 109.08244,109.99243 0 0 1 106.24242,31.680363 109.08244,109.99243 0 0 1 214.23118,126.3738 118.35056,118.35056 0 0 0 218.19476,96.847961 118.35056,118.35056 0 0 0 99.843843,-21.502437 Z"
           style="display:inline;fill:url(#linearGradient65);stroke-width:0.264583"
           id="path50-4-6" /></g></g><g
       id="g59"
       transform="translate(849.42119,33.476901)"><g
         id="g58"><path
           d="M 86.360959,6.1444605 A 101.12232,101.12232 0 0 0 -14.761034,107.26702 101.12232,101.12232 0 0 0 86.360959,208.38911 101.12232,101.12232 0 0 0 125.66915,200.10176 95.129883,95.129883 0 0 1 40.668657,105.76891 95.129883,95.129883 0 0 1 120.15217,11.993713 101.12232,101.12232 0 0 0 86.360959,6.1444605 Z"
           style="display:inline;fill:url(#linearGradient54);stroke-width:0.197341"
           id="path56" /><path
           d="M 94.380614,-46.441483 A 123.59395,123.59395 0 0 0 -29.212876,77.152523 123.59395,123.59395 0 0 0 -0.03326176,156.74198 115.72887,115.72887 0 0 1 -17.977386,95.504374 115.72887,115.72887 0 0 1 97.751467,-20.224479 115.72887,115.72887 0 0 1 213.48032,95.504374 115.72887,115.72887 0 0 1 211.50886,115.88659 123.59395,123.59395 0 0 0 217.97462,77.152523 123.59395,123.59395 0 0 0 94.380614,-46.441483 Z"
           style="display:inline;fill:url(#linearGradient55);stroke-width:0.264583"
           id="path57" /><path
           d="M 99.843843,-21.502437 A 118.35056,118.35056 0 0 0 -18.506553,96.847961 118.35056,118.35056 0 0 0 -1.6155941,157.35951 109.08244,109.99243 0 0 1 -2.8398088,141.67261 109.08244,109.99243 0 0 1 106.24242,31.680363 109.08244,109.99243 0 0 1 214.23118,126.3738 118.35056,118.35056 0 0 0 218.19476,96.847961 118.35056,118.35056 0 0 0 99.843843,-21.502437 Z"
           style="display:inline;fill:url(#linearGradient56);stroke-width:0.264583"
           id="path58" /></g></g></g></svg>
